<svg width="353px" height="48px" viewBox="0 0 353 48" version="1.1" xmlns="http://www.w3.org/2000/svg" xmlns:xlink="http://www.w3.org/1999/xlink">
    <!-- Generator: Sketch 51.2 (57519) - http://www.bohemiancoding.com/sketch -->
    <title>Artboard 2@1x</title>
    <desc>Created with Sketch.</desc>
    <defs>
        <polygon id="path-1" points="0 0.3106 44.9548 0.3106 44.9548 43.6956 0 43.6956"></polygon>
        <polygon id="path-3" points="0 47.4111 352.151 47.4111 352.151 0.0001 0 0.0001"></polygon>
    </defs>
    <g id="Artboard-2" stroke="none" stroke-width="1" fill="none" fill-rule="evenodd">
        <g id="Group-24">
            <g id="Group-3" transform="translate(0.000000, 3.411100)">
                <mask id="mask-2" fill="white">
                    <use xlink:href="#path-1"></use>
                </mask>
                <g id="Clip-2"></g>
                <path d="M44.9548,2.3326 L28.8638,2.3326 L28.8638,1.8386 C28.8638,0.9936 28.1798,0.3106 27.3358,0.3106 L20.5338,0.3106 L20.5338,2.3326 L-0.0002,2.3326 L-0.0002,43.6956 L5.3028,43.6956 C6.1468,43.6956 6.8308,43.0116 6.8308,42.1676 L6.8308,6.8846 L44.9548,6.8846 L44.9548,2.3326 Z" id="Fill-1" fill="#FF4611" mask="url(#mask-2)"></path>
            </g>
            <polygon id="Fill-4" fill="#FF4611" points="96.1662 9.731 96.1662 5.179 74.8192 5.179 74.8192 9.731 82.0772 9.731 82.0772 14.823 74.8192 14.823 74.8192 19.376 82.0772 19.376 82.0772 24.466 74.8192 24.466 74.8192 29.018 82.0772 29.018 82.0772 34.11 74.8192 34.11 74.8192 38.662 82.0772 38.662 82.0772 47.107 88.9082 47.107 88.9082 38.662 96.1662 38.662 96.1662 34.11 88.9082 34.11 88.9082 29.018 96.1662 29.018 96.1662 24.466 88.9082 24.466 88.9082 19.376 96.1662 19.376 96.1662 14.823 88.9082 14.823 88.9082 9.731"></polygon>
            <path d="M72.1926,8.2769 L72.1926,5.2539 L50.9386,5.2539 L50.9386,9.8049 L58.1956,9.8049 L58.1956,17.9359 L50.9386,17.9359 L50.9386,22.4879 L58.1956,22.4879 L58.1956,30.6189 L50.9386,30.6189 L50.9386,35.1719 L57.3176,35.1719 L52.8406,44.4939 L58.9166,47.4109 L64.7946,35.1719 L72.1926,35.1719 L72.1926,30.6189 L64.9356,30.6189 L64.9356,22.4879 L72.1926,22.4879 L72.1926,17.9359 L64.9356,17.9359 L64.9356,9.8049 L70.6646,9.8049 C71.5086,9.8049 72.1926,9.1209 72.1926,8.2769" id="Fill-6" fill="#FF4611"></path>
            <path d="M44.1443,27.9947 L44.1443,26.3757 L9.6993,26.3757 L9.6993,29.5227 L24.2973,29.5227 L24.2973,32.5367 L9.6993,32.5367 L9.6993,35.6837 L24.2973,35.6837 L24.2973,38.6967 L9.6993,38.6967 L9.6993,41.8447 L24.2973,41.8447 L24.2973,44.6957 L16.9353,44.6957 L16.9353,47.2087 L29.6003,47.2087 C30.4443,47.2087 31.1283,46.5237 31.1283,45.6807 L31.1283,41.8447 L44.1443,41.8447 L44.1443,38.6967 L31.1283,38.6967 L31.1283,35.6837 L44.1443,35.6837 L44.1443,32.5367 L31.1283,32.5367 L31.1283,29.5227 L42.6163,29.5227 C43.4603,29.5227 44.1443,28.8387 44.1443,27.9947" id="Fill-8" fill="#FF4611"></path>
            <polygon id="Fill-10" fill="#FF4611" points="44.1643 20.0718 36.4293 17.2148 44.1243 17.2148 44.1243 14.0668 39.4093 14.0668 39.4093 12.3648 32.5893 12.3648 32.5893 14.0668 27.8733 14.0668 27.8733 17.2148 35.6493 17.2148 27.9143 20.0718 27.9143 22.9988 32.9893 21.1248 32.9893 23.8528 39.0083 23.8528 39.0083 21.0938 44.1643 22.9988"></polygon>
            <polygon id="Fill-12" fill="#FF4611" points="21.2146 12.3648 14.3946 12.3648 14.3946 14.0668 9.6796 14.0668 9.6796 17.2148 17.4146 17.2148 9.6796 20.0718 9.6796 22.9988 14.7946 21.1098 14.7946 23.8528 20.8146 23.8528 20.8146 21.1098 25.9296 22.9988 25.9296 20.0718 18.1946 17.2148 25.9296 17.2148 25.9296 14.0668 21.2146 14.0668"></polygon>
            <path d="M187.6794,37.525 C181.4144,37.525 176.3174,32.428 176.3174,26.164 C176.3174,19.898 181.4144,14.801 187.6794,14.801 C193.9444,14.801 199.0414,19.898 199.0414,26.164 C199.0414,32.428 193.9444,37.525 187.6794,37.525 M187.6794,6.467 C176.8194,6.467 167.9834,15.303 167.9834,26.164 C167.9834,37.023 176.8194,45.859 187.6794,45.859 C198.5394,45.859 207.3744,37.023 207.3744,26.164 C207.3744,15.303 198.5394,6.467 187.6794,6.467" id="Fill-14" fill="#FF4611"></path>
            <path d="M245.1574,26.1636 C245.1574,32.4286 240.0604,37.5246 233.7954,37.5246 C227.5304,37.5246 222.4334,32.4286 222.4334,26.1636 C222.4334,19.8976 227.5304,14.8016 233.7954,14.8016 C240.0604,14.8016 245.1574,19.8976 245.1574,26.1636 M233.7954,6.4676 C229.6734,6.4676 225.7694,7.7146 222.4334,10.0856 L222.4334,0.5876 L214.1004,0.5876 L214.1004,26.1636 C214.1004,37.0226 222.9354,45.8586 233.7954,45.8586 C244.6554,45.8586 253.4904,37.0226 253.4904,26.1636 C253.4904,15.3036 244.6554,6.4676 233.7954,6.4676" id="Fill-16" fill="#FF4611"></path>
            <mask id="mask-4" fill="white">
                <use xlink:href="#path-3"></use>
            </mask>
            <g id="Clip-19"></g>
            <polygon id="Fill-18" fill="#FF4611" mask="url(#mask-4)" points="261.732 44.6651 270.065 44.6651 270.065 14.8681 261.732 14.8681"></polygon>
            <path d="M161.6228,20.8023 C161.0178,12.7193 154.2718,6.4673 146.1078,6.4673 C141.7958,6.4673 137.7038,8.2583 134.7748,11.4033 C131.8478,8.2583 127.7538,6.4673 123.4418,6.4673 C115.2788,6.4673 108.5628,12.7193 107.9578,20.8023 L107.9278,21.3853 L107.9278,44.6643 L116.2608,44.6643 L116.2608,21.6453 L116.2898,21.4293 C116.5728,17.7123 119.7148,14.8013 123.4418,14.8013 C127.1628,14.8013 130.2988,17.7013 130.5938,21.4073 L130.5938,44.6643 L138.9268,44.6643 L138.9268,21.6443 L138.9558,21.4293 C139.2388,17.7123 142.3808,14.8013 146.1078,14.8013 C149.8358,14.8013 152.9768,17.7123 153.2608,21.4293 L153.2898,21.8033 L153.2898,44.6643 L161.6228,44.6643 L161.6228,20.8023 Z" id="Fill-20" fill="#FF4611" mask="url(#mask-4)"></path>
            <path d="M270.8342,4.9351 C270.8342,2.2091 268.6242,-0.0009 265.8982,-0.0009 C263.1722,-0.0009 260.9632,2.2091 260.9632,4.9351 C260.9632,7.6621 263.1722,9.8711 265.8982,9.8711 C268.6242,9.8711 270.8342,7.6621 270.8342,4.9351" id="Fill-21" fill="#FF4611" mask="url(#mask-4)"></path>
            <polygon id="Fill-22" fill="#FF4611" mask="url(#mask-4)" points="310.778 7.6627 301.004 7.6627 288.637 24.5247 288.037 24.5247 288.037 0.5877 279.704 0.5877 279.704 44.6647 288.037 44.6647 288.037 27.8157 288.648 27.8157 301.004 44.6647 310.778 44.6647 297.244 26.1637"></polygon>
            <path d="M332.4499,14.4293 C337.3809,14.4293 341.5579,17.7183 343.0969,22.2943 L343.0969,23.1393 L321.8269,23.1393 L321.8269,22.2043 C323.3909,17.6743 327.5499,14.4293 332.4499,14.4293 Z M351.9199,29.1873 C352.0719,28.2003 352.1509,27.1923 352.1509,26.1633 C352.1509,15.2833 343.3299,6.4623 332.4499,6.4623 C321.5689,6.4623 312.7479,15.2833 312.7479,26.1633 C312.7479,37.0433 321.5689,45.8653 332.4499,45.8653 C340.2049,45.8653 346.9029,41.3773 350.1169,34.8633 L350.1169,33.9173 L341.7539,33.9173 C339.6139,36.3893 336.4439,37.9633 332.8899,37.9633 C327.7389,37.9633 323.3819,34.6653 321.8269,30.0933 L321.8269,29.1873 L351.9199,29.1873 Z" id="Fill-23" fill="#FF4611" mask="url(#mask-4)"></path>
        </g>
    </g>
</svg>